STARTFONT 2.1
COMMENT 99.02.4 7-bit part (ASCII) modified from etl16-latin1.bdf
COMMENT         8-bit part (Thai) created by Virach Sornlertlamvanich
COMMENT               <virach@nectec.or.th>
COMMENT	Thai glyphs are re-desinged to fit in the following size.
COMMENT ------ <- baseline + 15
COMMENT tone mark
COMMENT ------ <- baseline + 12
COMMENT upper vowel
COMMENT ------ <- baseline + 9
COMMENT consonant and base vowel
COMMENT ------ <- baseline
COMMENT lower vowel
COMMENT ------ <- baseline - 3
COMMENT 99.06.11 adjusted by Theppitak Karoonboonyanan <thep@links.nectec.or.th>
COMMENT - Width, offset of upper/lower chars are adjusted for proper display
COMMENT - Charset is changed from TIS620.2529 to TIS620.2533
COMMENT 2000/04/18 Theppitak Karoonboonyanan: charset changed to tis620-0
FONT -nectec-fixed-medium-i-normal--18-180-72-72-c-90-tis620-0
SIZE 18 72 72
FONTBOUNDINGBOX 9 18 0 -3
STARTPROPERTIES 19
FONTNAME_REGISTRY ""
FOUNDRY "nectec"
FAMILY_NAME "fixed"
WEIGHT_NAME "medium"
SLANT "i"
SETWIDTH_NAME "normal"
ADD_STYLE_NAME ""
PIXEL_SIZE 18
POINT_SIZE 180
RESOLUTION_X 72
RESOLUTION_Y 72 
SPACING "c"
AVERAGE_WIDTH 80
CHARSET_REGISTRY "tis620"
CHARSET_ENCODING "0"
COPYRIGHT "Copyright (C) 1999,2000 NECTEC, released under GPL license"
FONT_ASCENT 15
FONT_DESCENT 3
DEFAULT_CHAR 32
ENDPROPERTIES
CHARS 182
STARTCHAR SPACE
ENCODING 32
SWIDTH 500 0
DWIDTH 9 0
BBX 9 18 0 -3
BITMAP
0000
0000
0000
0000
0000
0000
0000
0000
0000
0000
0000
0000
0000
0000
0000
0000
0000
0000
ENDCHAR
STARTCHAR EXCLAMATION
ENCODING 33
SWIDTH 500 0
DWIDTH 9 0
BBX 9 18 0 -3
BITMAP
0000
0000
0000
0000
0200
0400
0400
0400
0800
0800
0800
0000
1000
1000
0000
0000
0000
0000
ENDCHAR
STARTCHAR QUOTATION
ENCODING 34
SWIDTH 500 0
DWIDTH 9 0
BBX 9 18 0 -3
BITMAP
0000
0000
0000
0000
1b00
1b00
1200
2400
0000
0000
0000
0000
0000
0000
0000
0000
0000
0000
ENDCHAR
STARTCHAR NUMBER
ENCODING 35
SWIDTH 500 0
DWIDTH 9 0
BBX 9 18 0 -3
BITMAP
0000
0000
0000
0000
0000
0280
0280
0500
3f80
0a00
1400
7f00
2800
5000
5000
0000
0000
0000
ENDCHAR
STARTCHAR DOLLAR
ENCODING 36
SWIDTH 500 0
DWIDTH 9 0
BBX 9 18 0 -3
BITMAP
0000
0000
0000
0000
0000
0200
1e00
2500
2400
1800
0c00
0a00
5200
3c00
1000
0000
0000
0000
ENDCHAR
STARTCHAR PERCENT
ENCODING 37
SWIDTH 500 0
DWIDTH 9 0
BBX 9 18 0 -3
BITMAP
0000
0000
0000
0000
0000
1c00
2480
2500
3a00
0c00
1800
3e00
5200
9200
1c00
0000
0000
0000
ENDCHAR
STARTCHAR AMPERSAND
ENCODING 38
SWIDTH 500 0
DWIDTH 9 0
BBX 9 18 0 -3
BITMAP
0000
0000
0000
0000
0000
0e00
1200
1200
0c00
1000
2900
4600
8400
8c00
7200
0000
0000
0000
ENDCHAR
STARTCHAR c27
ENCODING 39
SWIDTH 500 0
DWIDTH 9 0
BBX 9 18 0 -3
BITMAP
0000
0000
0000
0000
1800
1800
1000
2000
0000
0000
0000
0000
0000
0000
0000
0000
0000
0000
ENDCHAR
STARTCHAR LEFT
ENCODING 40
SWIDTH 500 0
DWIDTH 9 0
BBX 9 18 0 -3
BITMAP
0000
0000
0000
0000
0100
0200
0400
0800
1000
1000
2000
2000
2000
2000
1000
0800
0000
0000
ENDCHAR
STARTCHAR RIGHT
ENCODING 41
SWIDTH 500 0
DWIDTH 9 0
BBX 9 18 0 -3
BITMAP
0000
0000
0000
0000
0800
0400
0200
0200
0200
0200
0400
0400
0800
1000
2000
4000
0000
0000
ENDCHAR
STARTCHAR ASTERISK
ENCODING 42
SWIDTH 500 0
DWIDTH 9 0
BBX 9 18 0 -3
BITMAP
0000
0000
0000
0000
0000
0000
0000
0400
2500
2a00
1c00
2a00
5200
1000
0000
0000
0000
0000
ENDCHAR
STARTCHAR PLUS
ENCODING 43
SWIDTH 500 0
DWIDTH 9 0
BBX 9 18 0 -3
BITMAP
0000
0000
0000
0000
0000
0000
0000
0400
0400
0800
7f00
0800
1000
1000
0000
0000
0000
0000
ENDCHAR
STARTCHAR COMMA
ENCODING 44
SWIDTH 500 0
DWIDTH 9 0
BBX 9 18 0 -3
BITMAP
0000
0000
0000
0000
0000
0000
0000
0000
0000
0000
0000
0000
0000
3000
3000
2000
4000
0000
ENDCHAR
STARTCHAR HYPHEN,
ENCODING 45
SWIDTH 500 0
DWIDTH 9 0
BBX 9 18 0 -3
BITMAP
0000
0000
0000
0000
0000
0000
0000
0000
0000
0000
7f00
0000
0000
0000
0000
0000
0000
0000
ENDCHAR
STARTCHAR FULL
ENCODING 46
SWIDTH 500 0
DWIDTH 9 0
BBX 9 18 0 -3
BITMAP
0000
0000
0000
0000
0000
0000
0000
0000
0000
0000
0000
0000
0000
3000
3000
0000
0000
0000
ENDCHAR
STARTCHAR c2f
ENCODING 47
SWIDTH 500 0
DWIDTH 9 0
BBX 9 18 0 -3
BITMAP
0000
0000
0000
0000
0000
0080
0080
0100
0200
0400
0800
1000
2000
4000
8000
8000
0000
0000
ENDCHAR
STARTCHAR DIGIT
ENCODING 48
SWIDTH 500 0
DWIDTH 9 0
BBX 9 18 0 -3
BITMAP
0000
0000
0000
0000
0000
0700
0880
1080
2080
2080
4100
4100
4200
4400
3800
0000
0000
0000
ENDCHAR
STARTCHAR DIGIT
ENCODING 49
SWIDTH 500 0
DWIDTH 9 0
BBX 9 18 0 -3
BITMAP
0000
0000
0000
0000
0000
0200
0c00
1400
0400
0800
0800
0800
1000
1000
7c00
0000
0000
0000
ENDCHAR
STARTCHAR DIGIT
ENCODING 50
SWIDTH 500 0
DWIDTH 9 0
BBX 9 18 0 -3
BITMAP
0000
0000
0000
0000
0000
0f00
1080
2080
2080
0300
0400
1800
2000
4000
7e00
0000
0000
0000
ENDCHAR
STARTCHAR DIGIT
ENCODING 51
SWIDTH 500 0
DWIDTH 9 0
BBX 9 18 0 -3
BITMAP
0000
0000
0000
0000
0000
0f00
1080
2080
0100
0e00
0200
0100
0100
4200
3c00
0000
0000
0000
ENDCHAR
STARTCHAR DIGIT
ENCODING 52
SWIDTH 500 0
DWIDTH 9 0
BBX 9 18 0 -3
BITMAP
0000
0000
0000
0000
0000
0100
0300
0500
0900
1200
2200
4200
7f00
0400
0400
0000
0000
0000
ENDCHAR
STARTCHAR DIGIT
ENCODING 53
SWIDTH 500 0
DWIDTH 9 0
BBX 9 18 0 -3
BITMAP
0000
0000
0000
0000
0000
0f80
1000
1000
1e00
2100
0080
0080
0100
4200
3c00
0000
0000
0000
ENDCHAR
STARTCHAR DIGIT
ENCODING 54
SWIDTH 500 0
DWIDTH 9 0
BBX 9 18 0 -3
BITMAP
0000
0000
0000
0000
0000
0180
0600
0800
1000
3e00
2100
4100
4100
4200
3c00
0000
0000
0000
ENDCHAR
STARTCHAR DIGIT
ENCODING 55
SWIDTH 500 0
DWIDTH 9 0
BBX 9 18 0 -3
BITMAP
0000
0000
0000
0000
0000
3f80
0100
0200
0400
0800
1000
1000
2000
2000
2000
0000
0000
0000
ENDCHAR
STARTCHAR DIGIT
ENCODING 56
SWIDTH 500 0
DWIDTH 9 0
BBX 9 18 0 -3
BITMAP
0000
0000
0000
0000
0000
0f00
1080
1080
0f00
3200
4100
8100
8100
8200
7c00
0000
0000
0000
ENDCHAR
STARTCHAR DIGIT
ENCODING 57
SWIDTH 500 0
DWIDTH 9 0
BBX 9 18 0 -3
BITMAP
0000
0000
0000
0000
0000
0f00
1080
2080
2080
2100
1f00
0200
0400
0800
7000
0000
0000
0000
ENDCHAR
STARTCHAR COLON
ENCODING 58
SWIDTH 500 0
DWIDTH 9 0
BBX 9 18 0 -3
BITMAP
0000
0000
0000
0000
0000
0000
0000
0000
0c00
0c00
0000
0000
0000
3000
3000
0000
0000
0000
ENDCHAR
STARTCHAR SEMICOLON
ENCODING 59
SWIDTH 500 0
DWIDTH 9 0
BBX 9 18 0 -3
BITMAP
0000
0000
0000
0000
0000
0000
0000
0000
0c00
0c00
0000
0000
0000
3000
3000
2000
4000
0000
ENDCHAR
STARTCHAR LESS-THAN
ENCODING 60
SWIDTH 500 0
DWIDTH 9 0
BBX 9 18 0 -3
BITMAP
0000
0000
0000
0000
0000
0100
0200
0400
0800
1000
2000
2000
1000
0800
0400
0000
0000
0000
ENDCHAR
STARTCHAR EQUALS
ENCODING 61
SWIDTH 500 0
DWIDTH 9 0
BBX 9 18 0 -3
BITMAP
0000
0000
0000
0000
0000
0000
0000
0000
3f80
0000
0000
0000
fe00
0000
0000
0000
0000
0000
ENDCHAR
STARTCHAR GREATER-THAN
ENCODING 62
SWIDTH 500 0
DWIDTH 9 0
BBX 9 18 0 -3
BITMAP
0000
0000
0000
0000
0000
1000
0800
0400
0200
0200
0400
0800
1000
2000
4000
0000
0000
0000
ENDCHAR
STARTCHAR QUESTION
ENCODING 63
SWIDTH 500 0
DWIDTH 9 0
BBX 9 18 0 -3
BITMAP
0000
0000
0000
0000
0000
1e00
2100
4100
0200
0400
0800
1000
1000
0000
1000
0000
0000
0000
ENDCHAR
STARTCHAR COMMERCIAL
ENCODING 64
SWIDTH 500 0
DWIDTH 9 0
BBX 9 18 0 -3
BITMAP
0000
0000
0000
0000
0000
0f00
1080
2080
2e80
5100
5100
5100
5e00
4000
3e00
0000
0000
0000
ENDCHAR
STARTCHAR CAPITAL
ENCODING 65
SWIDTH 500 0
DWIDTH 9 0
BBX 9 18 0 -3
BITMAP
0000
0000
0000
0000
0000
0700
0880
1080
1080
2080
3f80
2100
4100
4200
4200
0000
0000
0000
ENDCHAR
STARTCHAR CAPITAL
ENCODING 66
SWIDTH 500 0
DWIDTH 9 0
BBX 9 18 0 -3
BITMAP
0000
0000
0000
0000
0000
0f00
1080
1080
1100
3e00
2100
2100
4100
4200
7c00
0000
0000
0000
ENDCHAR
STARTCHAR CAPITAL
ENCODING 67
SWIDTH 500 0
DWIDTH 9 0
BBX 9 18 0 -3
BITMAP
0000
0000
0000
0000
0000
0f00
1080
2080
2000
2000
4000
4000
4100
2200
1c00
0000
0000
0000
ENDCHAR
STARTCHAR CAPITAL
ENCODING 68
SWIDTH 500 0
DWIDTH 9 0
BBX 9 18 0 -3
BITMAP
0000
0000
0000
0000
0000
1e00
1100
2080
2080
2080
4100
4100
8200
8400
f800
0000
0000
0000
ENDCHAR
STARTCHAR CAPITAL
ENCODING 69
SWIDTH 500 0
DWIDTH 9 0
BBX 9 18 0 -3
BITMAP
0000
0000
0000
0000
0000
1f80
2000
2000
2000
7c00
4000
4000
8000
8000
fc00
0000
0000
0000
ENDCHAR
STARTCHAR CAPITAL
ENCODING 70
SWIDTH 500 0
DWIDTH 9 0
BBX 9 18 0 -3
BITMAP
0000
0000
0000
0000
0000
1f80
2000
2000
2000
7c00
4000
4000
8000
8000
8000
0000
0000
0000
ENDCHAR
STARTCHAR CAPITAL
ENCODING 71
SWIDTH 500 0
DWIDTH 9 0
BBX 9 18 0 -3
BITMAP
0000
0000
0000
0000
0000
0f00
1080
2080
2000
2000
4700
4100
4100
2600
1a00
0000
0000
0000
ENDCHAR
STARTCHAR CAPITAL
ENCODING 72
SWIDTH 500 0
DWIDTH 9 0
BBX 9 18 0 -3
BITMAP
0000
0000
0000
0000
0000
1080
1080
2100
2100
7f00
4200
4200
8400
8400
8400
0000
0000
0000
ENDCHAR
STARTCHAR CAPITAL
ENCODING 73
SWIDTH 500 0
DWIDTH 9 0
BBX 9 18 0 -3
BITMAP
0000
0000
0000
0000
0000
1f00
0400
0400
0400
0800
0800
1000
1000
1000
7c00
0000
0000
0000
ENDCHAR
STARTCHAR CAPITAL
ENCODING 74
SWIDTH 500 0
DWIDTH 9 0
BBX 9 18 0 -3
BITMAP
0000
0000
0000
0000
0000
1f80
0400
0400
0400
0800
0800
0800
0800
9000
6000
0000
0000
0000
ENDCHAR
STARTCHAR CAPITAL
ENCODING 75
SWIDTH 500 0
DWIDTH 9 0
BBX 9 18 0 -3
BITMAP
0000
0000
0000
0000
0000
1100
1200
2400
2800
3000
7000
5000
4800
8400
8400
0000
0000
0000
ENDCHAR
STARTCHAR CAPITAL
ENCODING 76
SWIDTH 500 0
DWIDTH 9 0
BBX 9 18 0 -3
BITMAP
0000
0000
0000
0000
0000
0800
1000
1000
1000
2000
2000
2000
4000
4000
7f00
0000
0000
0000
ENDCHAR
STARTCHAR CAPITAL
ENCODING 77
SWIDTH 500 0
DWIDTH 9 0
BBX 9 18 0 -3
BITMAP
0000
0000
0000
0000
0000
2080
2180
2180
3280
5500
5900
5100
8200
8200
8200
0000
0000
0000
ENDCHAR
STARTCHAR CAPITAL
ENCODING 78
SWIDTH 500 0
DWIDTH 9 0
BBX 9 18 0 -3
BITMAP
0000
0000
0000
0000
0000
2080
2080
3080
5100
4900
4900
4500
8600
8200
8200
0000
0000
0000
ENDCHAR
STARTCHAR CAPITAL
ENCODING 79
SWIDTH 500 0
DWIDTH 9 0
BBX 9 18 0 -3
BITMAP
0000
0000
0000
0000
0000
0700
0880
1080
2080
2080
4100
4100
4200
4400
3800
0000
0000
0000
ENDCHAR
STARTCHAR CAPITAL
ENCODING 80
SWIDTH 500 0
DWIDTH 9 0
BBX 9 18 0 -3
BITMAP
0000
0000
0000
0000
0000
0e00
1100
1080
1080
2100
3e00
2000
4000
4000
4000
0000
0000
0000
ENDCHAR
STARTCHAR CAPITAL
ENCODING 81
SWIDTH 500 0
DWIDTH 9 0
BBX 9 18 0 -3
BITMAP
0000
0000
0000
0000
0000
0700
0880
1080
2080
2080
4100
4d00
5600
5400
3a00
0000
0000
0000
ENDCHAR
STARTCHAR CAPITAL
ENCODING 82
SWIDTH 500 0
DWIDTH 9 0
BBX 9 18 0 -3
BITMAP
0000
0000
0000
0000
0000
0e00
1100
1080
1080
2100
3e00
2800
4400
4200
4100
0000
0000
0000
ENDCHAR
STARTCHAR CAPITAL
ENCODING 83
SWIDTH 500 0
DWIDTH 9 0
BBX 9 18 0 -3
BITMAP
0000
0000
0000
0000
0000
0f00
1080
1000
0800
0600
0100
0080
4080
2100
1e00
0000
0000
0000
ENDCHAR
STARTCHAR CAPITAL
ENCODING 84
SWIDTH 500 0
DWIDTH 9 0
BBX 9 18 0 -3
BITMAP
0000
0000
0000
0000
0000
7f00
0800
0800
0800
1000
1000
1000
2000
2000
2000
0000
0000
0000
ENDCHAR
STARTCHAR CAPITAL
ENCODING 85
SWIDTH 500 0
DWIDTH 9 0
BBX 9 18 0 -3
BITMAP
0000
0000
0000
0000
0000
2080
2080
4080
4100
4100
4100
8200
8200
8400
7800
0000
0000
0000
ENDCHAR
STARTCHAR CAPITAL
ENCODING 86
SWIDTH 500 0
DWIDTH 9 0
BBX 9 18 0 -3
BITMAP
0000
0000
0000
0000
0000
4080
4100
4100
4200
4400
2400
2800
3000
2000
2000
0000
0000
0000
ENDCHAR
STARTCHAR CAPITAL
ENCODING 87
SWIDTH 500 0
DWIDTH 9 0
BBX 9 18 0 -3
BITMAP
0000
0000
0000
0000
0000
2080
2080
2080
4900
4900
5900
a600
c600
c400
8400
0000
0000
0000
ENDCHAR
STARTCHAR CAPITAL
ENCODING 88
SWIDTH 500 0
DWIDTH 9 0
BBX 9 18 0 -3
BITMAP
0000
0000
0000
0000
0000
2080
2100
2100
1200
1c00
1800
1800
2400
4400
8400
0000
0000
0000
ENDCHAR
STARTCHAR CAPITAL
ENCODING 89
SWIDTH 500 0
DWIDTH 9 0
BBX 9 18 0 -3
BITMAP
0000
0000
0000
0000
0000
4080
4100
2200
2400
1800
1000
1000
2000
2000
2000
0000
0000
0000
ENDCHAR
STARTCHAR CAPITAL
ENCODING 90
SWIDTH 500 0
DWIDTH 9 0
BBX 9 18 0 -3
BITMAP
0000
0000
0000
0000
0000
1f80
0100
0200
0400
0800
1000
2000
4000
8000
fc00
0000
0000
0000
ENDCHAR
STARTCHAR LEFT
ENCODING 91
SWIDTH 500 0
DWIDTH 9 0
BBX 9 18 0 -3
BITMAP
0000
0000
0000
0000
0700
0400
0400
0800
0800
0800
1000
1000
1000
2000
2000
3800
0000
0000
ENDCHAR
STARTCHAR REVERSE
ENCODING 92
SWIDTH 500 0
DWIDTH 9 0
BBX 9 18 0 -3
BITMAP
0000
0000
0000
0000
2000
2000
2000
1000
1000
1000
0800
0800
0800
0400
0400
0400
0000
0000
ENDCHAR
STARTCHAR RIGHT
ENCODING 93
SWIDTH 500 0
DWIDTH 9 0
BBX 9 18 0 -3
BITMAP
0000
0000
0000
0000
0e00
0200
0200
0400
0400
0400
0800
0800
0800
1000
1000
7000
0000
0000
ENDCHAR
STARTCHAR CIRCUMFLEX
ENCODING 94
SWIDTH 500 0
DWIDTH 9 0
BBX 9 18 0 -3
BITMAP
0000
0000
0000
0600
0a00
1200
0000
0000
0000
0000
0000
0000
0000
0000
0000
0000
0000
0000
ENDCHAR
STARTCHAR LOW
ENCODING 95
SWIDTH 500 0
DWIDTH 9 0
BBX 9 18 0 -3
BITMAP
0000
0000
0000
0000
0000
0000
0000
0000
0000
0000
0000
0000
0000
0000
0000
7e00
0000
0000
ENDCHAR
STARTCHAR GRAVE
ENCODING 96
SWIDTH 500 0
DWIDTH 9 0
BBX 9 18 0 -3
BITMAP
0000
0000
0000
0000
0600
0600
0800
0800
0000
0000
0000
0000
0000
0000
0000
0000
0000
0000
ENDCHAR
STARTCHAR SMALL
ENCODING 97
SWIDTH 500 0
DWIDTH 9 0
BBX 9 18 0 -3
BITMAP
0000
0000
0000
0000
0000
0000
0000
0000
1f00
2080
0080
1f80
2100
4300
3d00
0000
0000
0000
ENDCHAR
STARTCHAR SMALL
ENCODING 98
SWIDTH 500 0
DWIDTH 9 0
BBX 9 18 0 -3
BITMAP
0000
0000
0000
0000
0000
0800
0800
1000
1600
1900
2080
2080
2100
6200
5c00
0000
0000
0000
ENDCHAR
STARTCHAR SMALL
ENCODING 99
SWIDTH 500 0
DWIDTH 9 0
BBX 9 18 0 -3
BITMAP
0000
0000
0000
0000
0000
0000
0000
0000
1e00
2100
2000
4000
4000
4200
3c00
0000
0000
0000
ENDCHAR
STARTCHAR SMALL
ENCODING 100
SWIDTH 500 0
DWIDTH 9 0
BBX 9 18 0 -3
BITMAP
0000
0000
0000
0000
0000
0080
0080
0100
1d00
2200
4200
8200
8400
8c00
7400
0000
0000
0000
ENDCHAR
STARTCHAR SMALL
ENCODING 101
SWIDTH 500 0
DWIDTH 9 0
BBX 9 18 0 -3
BITMAP
0000
0000
0000
0000
0000
0000
0000
0000
1e00
2100
4100
7e00
4000
4200
3c00
0000
0000
0000
ENDCHAR
STARTCHAR SMALL
ENCODING 102
SWIDTH 500 0
DWIDTH 9 0
BBX 9 18 0 -3
BITMAP
0000
0000
0000
0000
0000
0300
0480
0800
0800
7e00
1000
1000
2000
2000
2000
0000
0000
0000
ENDCHAR
STARTCHAR SMALL
ENCODING 103
SWIDTH 500 0
DWIDTH 9 0
BBX 9 18 0 -3
BITMAP
0000
0000
0000
0000
0000
0000
0000
0080
1e80
2300
4100
2200
3c00
4000
7c00
8200
8400
7800
ENDCHAR
STARTCHAR SMALL
ENCODING 104
SWIDTH 500 0
DWIDTH 9 0
BBX 9 18 0 -3
BITMAP
0000
0000
0000
0000
0000
0800
0800
1000
1600
3900
2100
2100
4100
4200
4200
0000
0000
0000
ENDCHAR
STARTCHAR SMALL
ENCODING 105
SWIDTH 500 0
DWIDTH 9 0
BBX 9 18 0 -3
BITMAP
0000
0000
0000
0000
0000
0200
0200
0000
0400
1c00
0800
0800
1000
1200
1c00
0000
0000
0000
ENDCHAR
STARTCHAR SMALL
ENCODING 106
SWIDTH 500 0
DWIDTH 9 0
BBX 9 18 0 -3
BITMAP
0000
0000
0000
0000
0000
0100
0100
0000
0e00
0400
0400
0400
0800
0800
0800
1000
9000
6000
ENDCHAR
STARTCHAR SMALL
ENCODING 107
SWIDTH 500 0
DWIDTH 9 0
BBX 9 18 0 -3
BITMAP
0000
0000
0000
0000
0000
0800
0800
1000
1200
2400
2800
3800
4800
4400
4200
0000
0000
0000
ENDCHAR
STARTCHAR SMALL
ENCODING 108
SWIDTH 500 0
DWIDTH 9 0
BBX 9 18 0 -3
BITMAP
0000
0000
0000
0000
0000
0600
0200
0400
0400
0800
0800
0800
1000
1200
1c00
0000
0000
0000
ENDCHAR
STARTCHAR SMALL
ENCODING 109
SWIDTH 500 0
DWIDTH 9 0
BBX 9 18 0 -3
BITMAP
0000
0000
0000
0000
0000
0000
0000
0000
3f00
2480
2480
2480
4900
4900
4900
0000
0000
0000
ENDCHAR
STARTCHAR SMALL
ENCODING 110
SWIDTH 500 0
DWIDTH 9 0
BBX 9 18 0 -3
BITMAP
0000
0000
0000
0000
0000
0000
0000
0000
2e00
3100
2100
2100
4200
4200
4200
0000
0000
0000
ENDCHAR
STARTCHAR SMALL
ENCODING 111
SWIDTH 500 0
DWIDTH 9 0
BBX 9 18 0 -3
BITMAP
0000
0000
0000
0000
0000
0000
0000
0000
1e00
2100
2100
4100
4200
4200
3c00
0000
0000
0000
ENDCHAR
STARTCHAR c70
ENCODING 112
SWIDTH 500 0
DWIDTH 9 0
BBX 9 18 0 -3
BITMAP
0000
0000
0000
0000
0000
0000
0000
0000
0b00
0c80
1080
1080
1080
3100
2e00
2000
4000
4000
ENDCHAR
STARTCHAR c71
ENCODING 113
SWIDTH 500 0
DWIDTH 9 0
BBX 9 18 0 -3
BITMAP
0000
0000
0000
0000
0000
0000
0000
0000
1d00
2700
4200
8200
8600
8c00
7400
0400
0800
0800
ENDCHAR
STARTCHAR SMALL
ENCODING 114
SWIDTH 500 0
DWIDTH 9 0
BBX 9 18 0 -3
BITMAP
0000
0000
0000
0000
0000
0000
0000
0000
1600
2900
3000
2000
4000
4000
4000
0000
0000
0000
ENDCHAR
STARTCHAR SMALL
ENCODING 115
SWIDTH 500 0
DWIDTH 9 0
BBX 9 18 0 -3
BITMAP
0000
0000
0000
0000
0000
0000
0000
0000
0f00
1080
2000
1e00
0100
4200
3c00
0000
0000
0000
ENDCHAR
STARTCHAR SMALL
ENCODING 116
SWIDTH 500 0
DWIDTH 9 0
BBX 9 18 0 -3
BITMAP
0000
0000
0000
0000
0000
0400
0800
0800
3e00
1000
1000
1000
2000
2200
1c00
0000
0000
0000
ENDCHAR
STARTCHAR SMALL
ENCODING 117
SWIDTH 500 0
DWIDTH 9 0
BBX 9 18 0 -3
BITMAP
0000
0000
0000
0000
0000
0000
0000
0000
1080
2100
2100
2100
4200
4600
3a00
0000
0000
0000
ENDCHAR
STARTCHAR SMALL
ENCODING 118
SWIDTH 500 0
DWIDTH 9 0
BBX 9 18 0 -3
BITMAP
0000
0000
0000
0000
0000
0000
0000
0000
4100
4200
4400
4800
5000
6000
4000
0000
0000
0000
ENDCHAR
STARTCHAR SMALL
ENCODING 119
SWIDTH 500 0
DWIDTH 9 0
BBX 9 18 0 -3
BITMAP
0000
0000
0000
0000
0000
0000
0000
0000
2080
2480
4900
4900
9200
9200
6c00
0000
0000
0000
ENDCHAR
STARTCHAR SMALL
ENCODING 120
SWIDTH 500 0
DWIDTH 9 0
BBX 9 18 0 -3
BITMAP
0000
0000
0000
0000
0000
0000
0000
0000
2100
2200
1400
0800
1800
2400
4200
0000
0000
0000
ENDCHAR
STARTCHAR SMALL
ENCODING 121
SWIDTH 500 0
DWIDTH 9 0
BBX 9 18 0 -3
BITMAP
0000
0000
0000
0000
0000
0000
0000
0000
1080
2080
2100
4100
4200
3e00
0200
0400
4400
3800
ENDCHAR
STARTCHAR SMALL
ENCODING 122
SWIDTH 500 0
DWIDTH 9 0
BBX 9 18 0 -3
BITMAP
0000
0000
0000
0000
0000
0000
0000
0000
3f00
0200
0400
0800
1000
2000
7e00
0000
0000
0000
ENDCHAR
STARTCHAR LEFT
ENCODING 123
SWIDTH 500 0
DWIDTH 9 0
BBX 9 18 0 -3
BITMAP
0000
0000
0000
0000
0300
0400
0800
0800
0400
0800
1000
0800
1000
2000
2000
1800
0000
0000
ENDCHAR
STARTCHAR VERTICAL
ENCODING 124
SWIDTH 500 0
DWIDTH 9 0
BBX 9 18 0 -3
BITMAP
0000
0000
0000
0200
0200
0200
0400
0400
0400
0800
0800
0800
1000
1000
1000
2000
2000
0000
ENDCHAR
STARTCHAR c7d
ENCODING 125
SWIDTH 500 0
DWIDTH 9 0
BBX 9 18 0 -3
BITMAP
0000
0000
0000
0000
0c00
0200
0200
0400
0800
0400
0800
1000
0800
0800
1000
6000
0000
0000
ENDCHAR
STARTCHAR TILDE
ENCODING 126
SWIDTH 500 0
DWIDTH 9 0
BBX 9 18 0 -3
BITMAP
0000
0000
0000
0000
0000
3800
4900
0e00
0000
0000
0000
0000
0000
0000
0000
0000
0000
0000
ENDCHAR
STARTCHAR ca1
ENCODING 161
SWIDTH 500 0
DWIDTH 9 0
BBX 9 18 0 -3
BITMAP
0000
0000
0000
0000
0000
0000
0000
3e00
1100
2200
2200
2200
4400
4400
4400
0000
0000
0000
ENDCHAR
STARTCHAR KHO_KHAI
ENCODING 162
SWIDTH 500 0
DWIDTH 9 0
BBX 9 18 0 -3
BITMAP
0000
0000
0000
0000
0000
0000
0000
0900
1500
0e00
0a00
3200
4400
4400
3800
0000
0000
0000
ENDCHAR
STARTCHAR ca3
ENCODING 163
SWIDTH 500 0
DWIDTH 9 0
BBX 9 18 0 -3
BITMAP
0000
0000
0000
0000
0000
0000
0000
1500
2b00
1600
0a00
3200
4400
4400
3800
0000
0000
0000
ENDCHAR
STARTCHAR KHO_KHWAI
ENCODING 164
SWIDTH 500 0
DWIDTH 9 0
BBX 9 18 0 -3
BITMAP
0000
0000
0000
0000
0000
0000
0000
1e00
2100
5200
6a00
5200
8400
8400
8400
0000
0000
0000
ENDCHAR
STARTCHAR ca5
ENCODING 165
SWIDTH 500 0
DWIDTH 9 0
BBX 9 18 0 -3
BITMAP
0000
0000
0000
0000
0000
0000
0000
1600
2900
5200
6a00
5200
8400
8400
8400
0000
0000
0000
ENDCHAR
STARTCHAR ca6
ENCODING 166
SWIDTH 500 0
DWIDTH 9 0
BBX 9 18 0 -3
BITMAP
0000
0000
0000
0000
0000
0000
0000
1480
2a80
1500
0900
1100
7200
aa00
6400
0000
0000
0000
ENDCHAR
STARTCHAR NGO_NGU
ENCODING 167
SWIDTH 500 0
DWIDTH 9 0
BBX 9 18 0 -3
BITMAP
0000
0000
0000
0000
0000
0000
0000
0200
0500
0300
4200
2200
2400
1400
0800
0000
0000
0000
ENDCHAR
STARTCHAR CHO_CHAN
ENCODING 168
SWIDTH 500 0
DWIDTH 9 0
BBX 9 18 0 -3
BITMAP
0000
0000
0000
0000
0000
0000
0000
3e00
4100
1200
2a00
1e00
0400
0400
0400
0000
0000
0000
ENDCHAR
STARTCHAR CHO_CHING
ENCODING 169
SWIDTH 500 0
DWIDTH 9 0
BBX 9 18 0 -3
BITMAP
0000
0000
0000
0000
0000
0000
0000
3e00
0100
2200
5200
3200
4f00
7700
4400
0000
0000
0000
ENDCHAR
STARTCHAR CHO_CHANG
ENCODING 170
SWIDTH 500 0
DWIDTH 9 0
BBX 9 18 0 -3
BITMAP
0000
0000
0000
0000
0000
0000
0080
0880
1500
0e00
0a00
3200
4400
4400
3800
0000
0000
0000
ENDCHAR
STARTCHAR cab
ENCODING 171
SWIDTH 500 0
DWIDTH 9 0
BBX 9 18 0 -3
BITMAP
0000
0000
0000
0000
0000
0000
0080
1480
2b00
1600
0a00
3200
4400
4400
3800
0000
0000
0000
ENDCHAR
STARTCHAR CHO_CHOE
ENCODING 172
SWIDTH 500 0
DWIDTH 9 0
BBX 9 18 0 -3
BITMAP
0000
0000
0000
0000
0000
0000
0000
3c80
1280
2500
2500
2500
4a00
fe00
7a00
0000
0000
0000
ENDCHAR
STARTCHAR YO_YING
ENCODING 173
SWIDTH 500 0
DWIDTH 9 0
BBX 9 18 0 -3
BITMAP
0000
0000
0000
0000
0000
0000
0000
3c80
1280
2500
2500
2500
4a00
ea00
6e00
0000
0a00
0c00
ENDCHAR
STARTCHAR cae
ENCODING 174
SWIDTH 500 0
DWIDTH 9 0
BBX 9 18 0 -3
BITMAP
0000
0000
0000
0000
0000
0000
0000
1f00
0880
1100
1100
1100
6200
a200
4a00
3c00
5c00
2400
ENDCHAR
STARTCHAR caf
ENCODING 175
SWIDTH 500 0
DWIDTH 9 0
BBX 9 18 0 -3
BITMAP
0000
0000
0000
0000
0000
0000
0000
1f00
0880
1100
1100
1100
6200
a200
4a00
5400
bc00
5400
ENDCHAR
STARTCHAR cb0
ENCODING 176
SWIDTH 500 0
DWIDTH 9 0
BBX 9 18 0 -3
BITMAP
0000
0000
0000
0000
0000
0000
0000
0f80
1000
7e00
0900
1500
1e00
0600
2400
cc00
d400
ac00
ENDCHAR
STARTCHAR THO_NANGMONTHO
ENCODING 177
SWIDTH 500 0
DWIDTH 9 0
BBX 9 18 0 -3
BITMAP
0000
0000
0000
0000
0000
0000
0000
2a00
5500
2a00
1200
2200
4400
4400
4400
0000
0000
0000
ENDCHAR
STARTCHAR THO_PHUTHAO
ENCODING 178
SWIDTH 500 0
DWIDTH 9 0
BBX 9 18 0 -3
BITMAP
0000
0000
0000
0000
0000
0000
0000
1480
2a80
4500
7500
5500
6a00
9e00
9a00
0000
0000
0000
ENDCHAR
STARTCHAR NO_NEN
ENCODING 179
SWIDTH 500 0
DWIDTH 9 0
BBX 9 18 0 -3
BITMAP
0000
0000
0000
0000
0000
0000
0000
3c80
1280
2500
2500
2500
4a00
ef00
6b00
0000
0000
0000
ENDCHAR
STARTCHAR cb4
ENCODING 180
SWIDTH 500 0
DWIDTH 9 0
BBX 9 18 0 -3
BITMAP
0000
0000
0000
0000
0000
0000
0000
1e00
2100
5200
6a00
5200
6400
8400
8400
0000
0000
0000
ENDCHAR
STARTCHAR cb5
ENCODING 181
SWIDTH 500 0
DWIDTH 9 0
BBX 9 18 0 -3
BITMAP
0000
0000
0000
0000
0000
0000
0000
1600
2900
5200
6a00
5200
6400
8400
8400
0000
0000
0000
ENDCHAR
STARTCHAR cb6
ENCODING 182
SWIDTH 500 0
DWIDTH 9 0
BBX 9 18 0 -3
BITMAP
0000
0000
0000
0000
0000
0000
0000
3e00
1100
2200
2200
4200
c400
a400
4400
0000
0000
0000
ENDCHAR
STARTCHAR THO_THAHAN
ENCODING 183
SWIDTH 500 0
DWIDTH 9 0
BBX 9 18 0 -3
BITMAP
0000
0000
0000
0000
0000
0000
0000
4600
a900
7200
3200
2200
4400
4400
4400
0000
0000
0000
ENDCHAR
STARTCHAR THO_THONG
ENCODING 184
SWIDTH 500 0
DWIDTH 9 0
BBX 9 18 0 -3
BITMAP
0000
0000
0000
0000
0000
0000
0000
1f00
2000
7c00
1200
1200
2400
2400
7800
0000
0000
0000
ENDCHAR
STARTCHAR NO_NU
ENCODING 185
SWIDTH 500 0
DWIDTH 9 0
BBX 9 18 0 -3
BITMAP
0000
0000
0000
0000
0000
0000
0000
2100
5100
3200
2200
2200
5c00
6a00
4e00
0000
0000
0000
ENDCHAR
STARTCHAR BO_BAIMAI
ENCODING 186
SWIDTH 500 0
DWIDTH 9 0
BBX 9 18 0 -3
BITMAP
0000
0000
0000
0000
0000
0000
0000
4100
a100
6200
4200
4200
8400
8400
7800
0000
0000
0000
ENDCHAR
STARTCHAR cbb
ENCODING 187
SWIDTH 500 0
DWIDTH 9 0
BBX 9 18 0 -3
BITMAP
0000
0000
0000
0000
0080
0080
0100
4100
a100
6200
4200
4200
8400
8400
7800
0000
0000
0000
ENDCHAR
STARTCHAR PHO_PHUNG
ENCODING 188
SWIDTH 500 0
DWIDTH 9 0
BBX 9 18 0 -3
BITMAP
0000
0000
0000
0000
0000
0000
0000
2100
5100
a200
8200
9200
a400
a400
5800
0000
0000
0000
ENDCHAR
STARTCHAR cbd
ENCODING 189
SWIDTH 500 0
DWIDTH 9 0
BBX 9 18 0 -3
BITMAP
0000
0000
0000
0000
0080
0080
0100
2100
5100
a200
8200
9200
a400
a400
5800
0000
0000
0000
ENDCHAR
STARTCHAR PHO_PHAN
ENCODING 190
SWIDTH 500 0
DWIDTH 9 0
BBX 9 18 0 -3
BITMAP
0000
0000
0000
0000
0000
0000
0000
2080
5480
3900
2900
4900
9200
9200
6c00
0000
0000
0000
ENDCHAR
STARTCHAR cbf
ENCODING 191
SWIDTH 500 0
DWIDTH 9 0
BBX 9 18 0 -3
BITMAP
0000
0000
0000
0000
0080
0080
0100
4100
a900
7200
5200
9200
a400
a400
5800
0000
0000
0000
ENDCHAR
STARTCHAR cc0
ENCODING 192
SWIDTH 500 0
DWIDTH 9 0
BBX 9 18 0 -3
BITMAP
0000
0000
0000
0000
0000
0000
0000
1f00
0880
1100
1100
1100
6200
a200
4200
0000
0000
0000
ENDCHAR
STARTCHAR MO_MA
ENCODING 193
SWIDTH 500 0
DWIDTH 9 0
BBX 9 18 0 -3
BITMAP
0000
0000
0000
0000
0000
0000
0000
1080
2880
1900
0900
1100
7200
aa00
4400
0000
0000
0000
ENDCHAR
STARTCHAR YO_YAK
ENCODING 194
SWIDTH 500 0
DWIDTH 9 0
BBX 9 18 0 -3
BITMAP
0000
0000
0000
0000
0000
0000
0000
1900
3500
4a00
4200
7200
8400
8400
7800
0000
0000
0000
ENDCHAR
STARTCHAR cc3
ENCODING 195
SWIDTH 500 0
DWIDTH 9 0
BBX 9 18 0 -3
BITMAP
0000
0000
0000
0000
0000
0000
0000
1f00
2000
7c00
0200
0200
0c00
1400
0800
0000
0000
0000
ENDCHAR
STARTCHAR cc4
ENCODING 196
SWIDTH 500 0
DWIDTH 9 0
BBX 9 18 0 -3
BITMAP
0000
0000
0000
0000
0000
0000
0000
3e00
1100
2200
2200
4200
c400
a400
4400
0800
0800
0800
ENDCHAR
STARTCHAR LO_LING
ENCODING 197
SWIDTH 500 0
DWIDTH 9 0
BBX 9 18 0 -3
BITMAP
0000
0000
0000
0000
0000
0000
0000
1e00
2100
4200
3200
4a00
c400
a400
4400
0000
0000
0000
ENDCHAR
STARTCHAR cc6
ENCODING 198
SWIDTH 500 0
DWIDTH 9 0
BBX 9 18 0 -3
BITMAP
0000
0000
0000
0000
0000
0000
0000
1f00
0880
1100
1100
1100
6200
a200
4200
0400
0400
0400
ENDCHAR
STARTCHAR WO_WAEN
ENCODING 199
SWIDTH 500 0
DWIDTH 9 0
BBX 9 18 0 -3
BITMAP
0000
0000
0000
0000
0000
0000
0000
1e00
2100
4200
0200
0200
0c00
1400
0800
0000
0000
0000
ENDCHAR
STARTCHAR cc8
ENCODING 200
SWIDTH 500 0
DWIDTH 9 0
BBX 9 18 0 -3
BITMAP
0000
0000
0000
0000
0000
0000
0100
1d00
2300
5200
6a00
5200
8400
8400
8400
0000
0000
0000
ENDCHAR
STARTCHAR cc9
ENCODING 201
SWIDTH 500 0
DWIDTH 9 0
BBX 9 18 0 -3
BITMAP
0000
0000
0000
0000
0000
0000
0000
4100
a100
6a00
5700
4a00
8400
8400
7800
0000
0000
0000
ENDCHAR
STARTCHAR cca
ENCODING 202
SWIDTH 500 0
DWIDTH 9 0
BBX 9 18 0 -3
BITMAP
0000
0000
0000
0000
0000
0000
0100
1d00
2300
4200
3200
4a00
c400
a400
4400
0000
0000
0000
ENDCHAR
STARTCHAR HO_HIP
ENCODING 203
SWIDTH 500 0
DWIDTH 9 0
BBX 9 18 0 -3
BITMAP
0000
0000
0000
0000
0000
0000
0000
2200
5500
3e00
3200
2200
4400
4400
4400
0000
0000
0000
ENDCHAR
STARTCHAR LO_CHULA
ENCODING 204
SWIDTH 500 0
DWIDTH 9 0
BBX 9 18 0 -3
BITMAP
0000
0000
0000
0000
0000
0000
0280
2500
5300
3100
2900
4900
9200
9200
6c00
0000
0000
0000
ENDCHAR
STARTCHAR O_ANG
ENCODING 205
SWIDTH 500 0
DWIDTH 9 0
BBX 9 18 0 -3
BITMAP
0000
0000
0000
0000
0000
0000
0000
1e00
2100
4200
2200
5200
e400
8400
7800
0000
0000
0000
ENDCHAR
STARTCHAR cce
ENCODING 206
SWIDTH 500 0
DWIDTH 9 0
BBX 9 18 0 -3
BITMAP
0000
0000
0000
0000
0000
0000
0100
1d00
2700
1a00
2200
5200
e400
8400
7800
0000
0000
0000
ENDCHAR
STARTCHAR PAI_YAN_NOI
ENCODING 207
SWIDTH 500 0
DWIDTH 9 0
BBX 9 18 0 -3
BITMAP
0000
0000
0000
0000
0000
0000
0000
2200
5500
3a00
0200
0200
0400
0400
0800
0000
0000
0000
ENDCHAR
STARTCHAR SARA_A
ENCODING 208
SWIDTH 500 0
DWIDTH 9 0
BBX 9 18 0 -3
BITMAP
0000
0000
0000
0000
0000
0000
0000
1100
2a00
1c00
0000
4400
a800
7000
0000
0000
0000
0000
ENDCHAR
STARTCHAR MAI_HAN-AKAT
ENCODING 209
SWIDTH 0 0
DWIDTH 0 0
BBX 9 18 -9 -3
BITMAP
0000
0000
0000
0400
0a80
0700
0000
0000
0000
0000
0000
0000
0000
0000
0000
0000
0000
0000
ENDCHAR
STARTCHAR SARA_AA
ENCODING 210
SWIDTH 500 0
DWIDTH 9 0
BBX 9 18 0 -3
BITMAP
0000
0000
0000
0000
0000
0000
0000
1e00
2100
0200
0200
0200
0400
0400
0400
0000
0000
0000
ENDCHAR
STARTCHAR SARA_AM
ENCODING 211
SWIDTH 500 0
DWIDTH 9 0
BBX 9 18 0 -3
BITMAP
0000
0000
0000
0000
1000
2800
1000
1e00
2100
0200
0200
0200
0400
0400
0400
0000
0000
0000
ENDCHAR
STARTCHAR SARA_I
ENCODING 212
SWIDTH 0 0
DWIDTH 0 0
BBX 9 18 -9 -3
BITMAP
0000
0000
0000
0700
0880
1f00
0000
0000
0000
0000
0000
0000
0000
0000
0000
0000
0000
0000
ENDCHAR
STARTCHAR SARA_II
ENCODING 213
SWIDTH 0 0
DWIDTH 0 0
BBX 9 18 -9 -3
BITMAP
0000
0000
0000
0c80
1280
3f00
0000
0000
0000
0000
0000
0000
0000
0000
0000
0000
0000
0000
ENDCHAR
STARTCHAR SARA_UE
ENCODING 214
SWIDTH 0 0
DWIDTH 0 0
BBX 9 18 -9 -3
BITMAP
0000
0000
0000
0d80
1280
3f00
0000
0000
0000
0000
0000
0000
0000
0000
0000
0000
0000
0000
ENDCHAR
STARTCHAR SARA_UEE
ENCODING 215
SWIDTH 0 0
DWIDTH 0 0
BBX 9 18 -9 -3
BITMAP
0000
0000
0000
0a80
1680
3f00
0000
0000
0000
0000
0000
0000
0000
0000
0000
0000
0000
0000
ENDCHAR
STARTCHAR SARA_U
ENCODING 216
SWIDTH 0 0
DWIDTH 0 0
BBX 9 18 -9 -3
BITMAP
0000
0000
0000
0000
0000
0000
0000
0000
0000
0000
0000
0000
0000
0000
0000
1800
1000
2000
ENDCHAR
STARTCHAR SARA_UU
ENCODING 217
SWIDTH 0 0
DWIDTH 0 0
BBX 9 18 -9 -3
BITMAP
0000
0000
0000
0000
0000
0000
0000
0000
0000
0000
0000
0000
0000
0000
0000
1400
1400
3800
ENDCHAR
STARTCHAR PHINTHU
ENCODING 218
SWIDTH 0 0
DWIDTH 0 0
BBX 9 18 -9 -3
BITMAP
0000
0000
0000
0000
0000
0000
0000
0000
0000
0000
0000
0000
0000
0000
0000
1800
3000
0000
ENDCHAR
STARTCHAR BAHT
ENCODING 223
SWIDTH 500 0
DWIDTH 9 0
BBX 9 18 0 -3
BITMAP
0000
0000
0000
0000
0000
0200
1f00
1480
1500
3e00
2900
2900
5200
fc00
1000
0000
0000
0000
ENDCHAR
STARTCHAR SARA_E
ENCODING 224
SWIDTH 500 0
DWIDTH 9 0
BBX 9 18 0 -3
BITMAP
0000
0000
0000
0000
0000
0000
0000
0200
0200
0400
0400
0400
0c00
0a00
0400
0000
0000
0000
ENDCHAR
STARTCHAR SARA_AE
ENCODING 225
SWIDTH 500 0
DWIDTH 9 0
BBX 9 18 0 -3
BITMAP
0000
0000
0000
0000
0000
0000
0000
1100
1100
2200
2200
2200
6600
5500
2200
0000
0000
0000
ENDCHAR
STARTCHAR SARA_O
ENCODING 226
SWIDTH 500 0
DWIDTH 9 0
BBX 9 18 0 -3
BITMAP
0000
0000
0000
0780
0800
1e00
0400
0400
0400
0800
0800
0800
1800
1400
0800
0000
0000
0000
ENDCHAR
STARTCHAR SARA_MAI_MUAN
ENCODING 227
SWIDTH 500 0
DWIDTH 9 0
BBX 9 18 0 -3
BITMAP
0000
0000
0000
0e00
1100
3100
2a00
1200
0200
0400
0400
0400
0c00
0a00
0400
0000
0000
0000
ENDCHAR
STARTCHAR SARA_MAI_MALAI
ENCODING 228
SWIDTH 500 0
DWIDTH 9 0
BBX 9 18 0 -3
BITMAP
0000
0000
0000
0980
0b00
0500
0200
0200
0200
0400
0400
0400
0c00
0a00
0400
0000
0000
0000
ENDCHAR
STARTCHAR LAK_KHANG_YAO
ENCODING 229
SWIDTH 500 0
DWIDTH 9 0
BBX 9 18 0 -3
BITMAP
0000
0000
0000
0000
0000
0000
0000
1e00
2100
0200
0200
0200
0400
0400
0400
0800
0800
0800
ENDCHAR
STARTCHAR MAI_YAMOK
ENCODING 230
SWIDTH 500 0
DWIDTH 9 0
BBX 9 18 0 -3
BITMAP
0000
0000
0000
0000
0000
0000
0000
1600
2900
3200
0200
0200
0400
0400
0400
0800
1000
0000
ENDCHAR
STARTCHAR MAI_TAI_KHU
ENCODING 231
SWIDTH 0 0
DWIDTH 0 0
BBX 9 18 -9 -3
BITMAP
0000
0000
0000
0f80
1500
1e00
0000
0000
0000
0000
0000
0000
0000
0000
0000
0000
0000
0000
ENDCHAR
STARTCHAR MAI_EK
ENCODING 232
SWIDTH 0 0
DWIDTH 0 0
BBX 9 18 -9 -3
BITMAP
0000
0080
0080
0000
0000
0000
0000
0000
0000
0000
0000
0000
0000
0000
0000
0000
0000
0000
ENDCHAR
STARTCHAR MAI_THO
ENCODING 233
SWIDTH 0 0
DWIDTH 0 0
BBX 9 18 -9 -3
BITMAP
0200
0280
0700
0000
0000
0000
0000
0000
0000
0000
0000
0000
0000
0000
0000
0000
0000
0000
ENDCHAR
STARTCHAR MAI_TRI
ENCODING 234
SWIDTH 0 0
DWIDTH 0 0
BBX 9 18 -9 -3
BITMAP
0500
0a80
0d00
0000
0000
0000
0000
0000
0000
0000
0000
0000
0000
0000
0000
0000
0000
0000
ENDCHAR
STARTCHAR MAI_CHATTAWA
ENCODING 235
SWIDTH 0 0
DWIDTH 0 0
BBX 9 18 -9 -3
BITMAP
0280
0100
0280
0000
0000
0000
0000
0000
0000
0000
0000
0000
0000
0000
0000
0000
0000
0000
ENDCHAR
STARTCHAR THANTHAKHAT
ENCODING 236
SWIDTH 0 0
DWIDTH 0 0
BBX 9 18 -9 -3
BITMAP
0080
0180
0100
0000
0000
0000
0000
0000
0000
0000
0000
0000
0000
0000
0000
0000
0000
0000
ENDCHAR
STARTCHAR NIKKHAHIT
ENCODING 237
SWIDTH 0 0
DWIDTH 0 0
BBX 9 18 -9 -3
BITMAP
0000
0000
0000
0300
0500
0600
0000
0000
0000
0000
0000
0000
0000
0000
0000
0000
0000
0000
ENDCHAR
STARTCHAR YAMAKKAN
ENCODING 238
SWIDTH 0 0
DWIDTH 0 0
BBX 9 18 -9 -3
BITMAP
0000
0000
0000
0380
0500
0a00
0000
0000
0000
0000
0000
0000
0000
0000
0000
0000
0000
0000
ENDCHAR
STARTCHAR FONGMAN
ENCODING 239
SWIDTH 500 0
DWIDTH 9 0
BBX 9 18 0 -3
BITMAP
0000
0000
0000
0000
0000
0000
0000
0000
1e00
2100
2d00
4900
5a00
4200
3c00
0000
0000
0000
ENDCHAR
STARTCHAR ZERO
ENCODING 240
SWIDTH 500 0
DWIDTH 9 0
BBX 9 18 0 -3
BITMAP
0000
0000
0000
0000
0000
0000
0000
0000
1e00
2100
2100
4100
4200
4200
3c00
0000
0000
0000
ENDCHAR
STARTCHAR ONE
ENCODING 241
SWIDTH 500 0
DWIDTH 9 0
BBX 9 18 0 -3
BITMAP
0000
0000
0000
0000
0000
0000
0000
0000
1e00
2100
4100
5900
6a00
5200
2400
0000
0000
0000
ENDCHAR
STARTCHAR TWO
ENCODING 242
SWIDTH 500 0
DWIDTH 9 0
BBX 9 18 0 -3
BITMAP
0000
0000
0000
0000
0000
0000
0000
4000
2d00
3680
2a80
2080
4100
4100
3e00
0000
0000
0000
ENDCHAR
STARTCHAR THREE
ENCODING 243
SWIDTH 500 0
DWIDTH 9 0
BBX 9 18 0 -3
BITMAP
0000
0000
0000
0000
0000
0000
0000
0000
1a00
2500
4500
5900
6a00
5200
2400
0000
0000
0000
ENDCHAR
STARTCHAR FOUR
ENCODING 244
SWIDTH 500 0
DWIDTH 9 0
BBX 9 18 0 -3
BITMAP
0000
0000
0000
0000
0000
0000
0000
0080
0f00
1000
2600
2a00
4c00
4800
3c00
0000
0000
0000
ENDCHAR
STARTCHAR FIVE
ENCODING 245
SWIDTH 500 0
DWIDTH 9 0
BBX 9 18 0 -3
BITMAP
0000
0000
0000
0000
0000
0000
0680
0680
0f00
1000
2600
2a00
4c00
4800
3c00
0000
0000
0000
ENDCHAR
STARTCHAR SIX
ENCODING 246
SWIDTH 500 0
DWIDTH 9 0
BBX 9 18 0 -3
BITMAP
0000
0000
0000
0000
0000
0000
0000
2000
2e00
3100
4100
1900
2a00
3200
3c00
0000
0000
0000
ENDCHAR
STARTCHAR SEVEN
ENCODING 247
SWIDTH 500 0
DWIDTH 9 0
BBX 9 18 0 -3
BITMAP
0000
0000
0000
0000
0000
0000
0000
0000
1480
2a80
4280
5a80
6d00
5500
2e00
0000
0000
0000
ENDCHAR
STARTCHAR EIGHT
ENCODING 248
SWIDTH 500 0
DWIDTH 9 0
BBX 9 18 0 -3
BITMAP
0000
0000
0000
0000
0000
0000
0000
0080
0f00
1000
2200
2500
5600
5200
2c00
0000
0000
0000
ENDCHAR
STARTCHAR NINE
ENCODING 249
SWIDTH 500 0
DWIDTH 9 0
BBX 9 18 0 -3
BITMAP
0000
0000
0000
0000
0000
0000
0000
0080
1b00
2c00
2c00
4400
6400
5400
2400
0000
0000
0000
ENDCHAR
STARTCHAR ANGKHANKHU
ENCODING 250
SWIDTH 500 0
DWIDTH 9 0
BBX 9 18 0 -3
BITMAP
0000
0000
0000
0000
0000
0000
0000
4500
ad00
7a00
0a00
0a00
1400
1400
2800
0000
0000
0000
ENDCHAR
STARTCHAR KHOMUT
ENCODING 251
SWIDTH 500 0
DWIDTH 9 0
BBX 9 18 0 -3
BITMAP
0000
0000
0000
0000
0000
0000
0000
1000
2800
4800
5500
5600
b000
a000
4000
0000
0000
0000
ENDCHAR
ENDFONT
